<?xml version="1.0" encoding="UTF-8" standalone="no" ?>
<!DOCTYPE svg PUBLIC "-//W3C//DTD SVG 1.1//EN" "http://www.w3.org/Graphics/SVG/1.1/DTD/svg11.dtd">
<svg width="191mm" xmlns="http://www.w3.org/2000/svg" height="163mm" version="1.1" viewBox="0 0 725 616" xmlns:xlink="http://www.w3.org/1999/xlink">
   <polyline fill="none" points="390,18 390,69" stroke="#800000" stroke-width="1"/>
   <polygon fill="#800000" points="390,69 387,56 393,56" stroke="#800000" stroke-width="1" stroke-linejoin="miter"/>
   <text x="440" y="45" fill="#000000" font-size="10" font-family="Arial Unicode MS" text-anchor="middle">/ Загрузить объект</text>
   <polyline fill="none" points="390,122 390,165" stroke="#800000" stroke-width="1"/>
   <polygon fill="#800000" points="390,165 387,152 393,152" stroke="#800000" stroke-width="1" stroke-linejoin="miter"/>
   <text x="390" y="141" fill="#000000" font-size="10" font-family="Arial Unicode MS" text-anchor="middle">[Создание успешно]/ Проинициализировать объект</text>
   <polyline fill="none" points="507,199 508,256" stroke="#800000" stroke-width="1"/>
   <polygon fill="#800000" points="508,256 504,243 510,243" stroke="#800000" stroke-width="1" stroke-linejoin="miter"/>
   <text x="542" y="228" fill="#000000" font-size="10" font-family="Arial Unicode MS" text-anchor="middle">[Ошибка подписки к КНЦ ||  Аппаратно выключен]</text>
   <polyline fill="none" points="385,200 231,351" stroke="#800000" stroke-width="1"/>
   <polygon fill="#800000" points="231,351 238,339 242,344" stroke="#800000" stroke-width="1" stroke-linejoin="miter"/>
   <text x="335" y="251" fill="#000000" font-size="10" font-family="Arial Unicode MS" text-anchor="middle">[Подписан к КНЦ &amp;&amp; Аппаратно включен]</text>
   <polyline fill="none" points="540,291 286,352" stroke="#800000" stroke-width="1"/>
   <polygon fill="#800000" points="286,352 298,346 299,351" stroke="#800000" stroke-width="1" stroke-linejoin="miter"/>
   <text x="426" y="306" fill="#000000" font-size="10" font-family="Arial Unicode MS" text-anchor="middle">[Подписан к КНЦ &amp;&amp; Аппаратно включен]</text>
   <polyline fill="none" points="210,386 388,512" stroke="#800000" stroke-width="1"/>
   <polygon fill="#800000" points="388,512 375,507 379,502" stroke="#800000" stroke-width="1" stroke-linejoin="miter"/>
   <text x="255" y="437" fill="#000000" font-size="10" font-family="Arial Unicode MS" text-anchor="middle">Команда выгрузки/ Выгрузить</text>
   <polyline fill="none" points="389,547 389,592" stroke="#800000" stroke-width="1"/>
   <polygon fill="#800000" points="389,592 386,579 392,579" stroke="#800000" stroke-width="1" stroke-linejoin="miter"/>
   <polyline fill="none" points="287,369 682,370 682,291" stroke="#800000" stroke-width="1"/>
   <polygon fill="#800000" points="682,291 685,304 679,304" stroke="#800000" stroke-width="1" stroke-linejoin="miter"/>
   <text x="422" y="388" fill="#000000" font-size="10" font-family="Arial Unicode MS" text-anchor="middle">[Ошибка подписки к КНЦ || Аппаратно выключен]</text>
   <polyline fill="none" points="135,377 78,377 78,321 151,322 151,351" stroke="#800000" stroke-width="1"/>
   <polygon fill="#800000" points="151,351 148,337 154,337" stroke="#800000" stroke-width="1" stroke-linejoin="miter"/>
   <text x="103" y="311" fill="#000000" font-size="10" font-family="Arial Unicode MS" text-anchor="middle">[Нет ошибок &amp;&amp; Нет команды выгрузки]</text>
   <defs>
      <linearGradient id="Gradient1" x1="0%" x2="100%" y1="0%" y2="100%" gradientUnits="objectBoundingBox">
         <stop offset="5%" stop-color="#ffffff"/>
         <stop offset="95%" stop-color="#e9ca83"/>
      </linearGradient>
   </defs>
   <rect x="290" y="69" rx="6" ry="6" fill="url(#Gradient1)" width="201" height="53" stroke="#ff8040" stroke-width="1"/>
   <text x="390" y="81" fill="#000000" font-size="10" font-family="Arial Unicode MS" text-anchor="middle">Создание объекта</text>
   <line x1="290" x2="491" y1="87" y2="87" stroke="#ff8040" stroke-width="1"/>
   <text x="298" y="97" fill="#000000" font-size="10" font-family="Arial">entry/ Выставить начальные состояния</text>
   <defs>
      <linearGradient id="Gradient2" x1="0%" x2="100%" y1="0%" y2="100%" gradientUnits="objectBoundingBox">
         <stop offset="5%" stop-color="#c0c0c0"/>
         <stop offset="95%" stop-color="#ff8000"/>
      </linearGradient>
   </defs>
   <ellipse cx="390" cy="10" rx="8" ry="8" fill="url(#Gradient2)" stroke="#ff8040" stroke-width="1"/>
   <defs>
      <linearGradient id="Gradient3" x1="0%" x2="100%" y1="0%" y2="100%" gradientUnits="objectBoundingBox">
         <stop offset="5%" stop-color="#ffffff"/>
         <stop offset="95%" stop-color="#e9ca83"/>
      </linearGradient>
   </defs>
   <rect x="272" y="165" rx="4" ry="4" fill="url(#Gradient3)" width="237" height="35" stroke="#ff8040" stroke-width="1"/>
   <text x="390" y="177" fill="#000000" font-size="10" font-family="Arial Unicode MS" text-anchor="middle">Инициализация</text>
   <line x1="272" x2="509" y1="183" y2="183" stroke="#ff8040" stroke-width="1"/>
   <text x="278" y="193" fill="#000000" font-size="10" font-family="Arial">entry/ Запросить аппаратную конфигурацию</text>
   <text x="278" y="206" fill="#000000" font-size="10" font-family="Arial">...</text>
   <defs>
      <linearGradient id="Gradient4" x1="0%" x2="100%" y1="0%" y2="100%" gradientUnits="objectBoundingBox">
         <stop offset="5%" stop-color="#ffffff"/>
         <stop offset="95%" stop-color="#e9ca83"/>
      </linearGradient>
   </defs>
   <rect x="502" y="256" rx="4" ry="4" fill="url(#Gradient4)" width="221" height="35" stroke="#ff8040" stroke-width="1"/>
   <text x="612" y="268" fill="#000000" font-size="10" font-family="Arial Unicode MS" text-anchor="middle">Выключен из конфигурации</text>
   <line x1="502" x2="723" y1="274" y2="274" stroke="#ff8040" stroke-width="1"/>
   <text x="509" y="284" fill="#000000" font-size="10" font-family="Arial">entry/ Выставить отключенное состояние</text>
   <text x="509" y="297" fill="#000000" font-size="10" font-family="Arial">...</text>
   <defs>
      <linearGradient id="Gradient5" x1="0%" x2="100%" y1="0%" y2="100%" gradientUnits="objectBoundingBox">
         <stop offset="5%" stop-color="#ffffff"/>
         <stop offset="95%" stop-color="#e9ca83"/>
      </linearGradient>
   </defs>
   <rect x="135" y="351" rx="4" ry="4" fill="url(#Gradient5)" width="152" height="35" stroke="#ff8040" stroke-width="1"/>
   <text x="211" y="363" fill="#000000" font-size="10" font-family="Arial Unicode MS" text-anchor="middle">Ожидание внешних событий</text>
   <line x1="135" x2="287" y1="369" y2="369" stroke="#ff8040" stroke-width="1"/>
   <defs>
      <linearGradient id="Gradient6" x1="0%" x2="100%" y1="0%" y2="100%" gradientUnits="objectBoundingBox">
         <stop offset="5%" stop-color="#ffffff"/>
         <stop offset="95%" stop-color="#e9ca83"/>
      </linearGradient>
   </defs>
   <rect x="291" y="512" rx="4" ry="4" fill="url(#Gradient6)" width="197" height="35" stroke="#ff8040" stroke-width="1"/>
   <text x="389" y="524" fill="#000000" font-size="10" font-family="Arial Unicode MS" text-anchor="middle">Выгрузка объекта</text>
   <line x1="291" x2="488" y1="530" y2="530" stroke="#ff8040" stroke-width="1"/>
   <text x="298" y="540" fill="#000000" font-size="10" font-family="Arial">entry/ Выставить состояния выгрузки</text>
   <text x="298" y="553" fill="#000000" font-size="10" font-family="Arial">...</text>
   <ellipse cx="389" cy="602" rx="10" ry="10" fill="#ffffff" stroke="#ff8000" stroke-width="1"/>
   <defs>
      <linearGradient id="Gradient7" x1="0%" x2="100%" y1="0%" y2="100%" gradientUnits="objectBoundingBox">
         <stop offset="5%" stop-color="#c0c0c0"/>
         <stop offset="95%" stop-color="#ff8000"/>
      </linearGradient>
   </defs>
   <ellipse cx="389" cy="602" rx="6" ry="6" fill="url(#Gradient7)" stroke="#ff8000" stroke-width="1"/>
</svg>
